<svg xmlns="http://www.w3.org/2000/svg" xmlns:xlink="http://www.w3.org/1999/xlink" version="1.1" x="0px" y="0px" viewBox="0 0 100 125"><path d="M599,950 c-96,0,-138,-79,-138,-162 c0,-102,64,-153,64,-188 c0,-15,-12,-32,-36,-45 l-140,-75 c-42,-22,-25,-130,-25,-130 l550,0 c0,0,19,106,-25,130 l-140,75 c-27,14,-38,29,-38,43 c0,31,65,80,65,191 c0,97,-50,161,-137,161 Z M-20,100 l1240,0 c54,0,80,26,80,80 l0,940 c0,54,-26,80,-80,80 l-1240,0 c-54,0,-80,-26,-80,-80 l0,-940 c0,-54,26,-80,80,-80 Z M0,200 l0,100 l100,0 l0,-100 Z M0,400 l0,100 l100,0 l0,-100 Z M0,600 l0,100 l100,0 l0,-100 Z M0,800 l0,100 l100,0 l0,-100 Z M0,1000 l0,100 l100,0 l0,-100 Z M200,200 l0,900 l800,0 l0,-900 Z M1100,200 l0,100 l100,0 l0,-100 Z M1100,400 l0,100 l100,0 l0,-100 Z M1100,600 l0,100 l100,0 l0,-100 Z M1100,800 l0,100 l100,0 l0,-100 Z M1100,1000 l0,100 l100,0 l0,-100 Z M1100,1000 " fill="#000000" stroke="none" stroke-dasharray="none" stroke-linecap="inherit" stroke-linejoin="inherit" stroke-width="1" transform="matrix(0.05,0.0,0.0,-0.05,20.0,80.0)"/><text x="0" y="115" fill="#000000" font-size="5px" font-weight="bold" font-family="'Helvetica Neue', Helvetica, Arial-Unicode, Arial, Sans-serif">Created by Thomas Helbig</text><text x="0" y="120" fill="#000000" font-size="5px" font-weight="bold" font-family="'Helvetica Neue', Helvetica, Arial-Unicode, Arial, Sans-serif">from the Noun Project</text></svg>