<svg xmlns="http://www.w3.org/2000/svg" xmlns:xlink="http://www.w3.org/1999/xlink" version="1.1" x="0px" y="0px" viewBox="0 0 100 125" enable-background="new 0 0 100 100" xml:space="preserve"><rect x="34.571" y="16.321" fill="#000000" width="5.716" height="5.716"/><rect x="34.571" y="28.368" fill="#000000" width="5.716" height="5.716"/><rect x="34.571" y="40.416" fill="#000000" width="5.716" height="5.716"/><rect x="34.571" y="52.464" fill="#000000" width="5.716" height="5.716"/><rect x="80.349" y="16.321" fill="#000000" width="5.716" height="5.716"/><rect x="80.349" y="28.368" fill="#000000" width="5.716" height="5.716"/><rect x="80.349" y="40.416" fill="#000000" width="5.716" height="5.716"/><rect x="80.349" y="52.464" fill="#000000" width="5.716" height="5.716"/><path fill="#000000" d="M52.324,50.356c-0.188,0-0.375-0.048-0.546-0.142c-0.354-0.199-0.572-0.572-0.572-0.975V26.271  c0-0.404,0.218-0.777,0.572-0.975c0.354-0.194,0.786-0.19,1.13,0.024l18.704,11.483c0.332,0.203,0.532,0.563,0.532,0.951  c0,0.389-0.201,0.749-0.532,0.951L52.909,50.19C52.73,50.301,52.527,50.356,52.324,50.356z M53.442,28.268v18.974l15.45-9.488  L53.442,28.268z"/><path fill="#000000" d="M81.978,8.301c4.025,0,7.3,3.275,7.3,7.3V59.3c0,4.025-3.275,7.3-7.3,7.3H38.279c-4.025,0-7.3-3.275-7.3-7.3  V15.601c0-4.025,3.275-7.3,7.3-7.3H81.978 M81.978,6.066H38.279c-5.266,0-9.535,4.269-9.535,9.535V59.3  c0,5.266,4.269,9.535,9.535,9.535h43.699c5.266,0,9.535-4.269,9.535-9.535V15.601C91.512,10.335,87.243,6.066,81.978,6.066  L81.978,6.066z"/><path fill="#000000" d="M74.63,71.069h-2.299l0.225,0.924c0.478,1.957,0.164,3.985-0.884,5.706  c-1.048,1.722-2.704,2.931-4.661,3.409l-38.573,9.386c-1.953,0.474-3.98,0.164-5.706-0.886c-1.722-1.047-2.931-2.704-3.409-4.661  l-9.383-38.57c-0.478-1.957-0.161-3.985,0.886-5.706c1.047-1.722,2.704-2.931,4.661-3.409l11.023-2.682V32.28l-11.551,2.809  c-2.538,0.618-4.683,2.187-6.043,4.419c-1.357,2.23-1.765,4.858-1.148,7.396l9.386,38.57c0.615,2.538,2.184,4.683,4.417,6.043  c1.552,0.943,3.293,1.429,5.065,1.429c0.775,0,1.558-0.094,2.331-0.284l38.573-9.386c2.538-0.615,4.683-2.184,6.04-4.417  c1.36-2.23,1.765-4.858,1.148-7.396L74.63,71.069z"/><text x="0" y="115" fill="#000000" font-size="5px" font-weight="bold" font-family="'Helvetica Neue', Helvetica, Arial-Unicode, Arial, Sans-serif">Created by Milky - Digital innovation</text><text x="0" y="120" fill="#000000" font-size="5px" font-weight="bold" font-family="'Helvetica Neue', Helvetica, Arial-Unicode, Arial, Sans-serif">from the Noun Project</text></svg>